# xmcd
#
# Track frame offsets:
#	150
#	13426
#	17088
#	30607
#	43719
#	59036
#	74318
#	88433
#	102547
#	117055
#	131562
#	147261
#	162696
#	176604
#	190343
#	206631
#	222652
#	237820
#	253060
#	265870
#	278675
#	293374
#	308092
#	314673
#	335028
#
# Disc length: 4644 seconds
#
# Revision: 0
# Processed by: cddbd v1.5.2PL0 Copyright (c) Steve Scherf et al.
# Submitted via: audiograbber 1.83.01
#
DISCID=90122219
DTITLE=Jörg Sieghart u.a. - Playalongs für Saxophonisten Vol. 1
DYEAR=1900
DGENRE=Blues
TTITLE0=Trailer
TTITLE1=Stimmtöne
TTITLE2=Playalong 1 mit Sax
TTITLE3=Playalong 1
TTITLE4=Playalong 2 mit Sax
TTITLE5=Playalong 2
TTITLE6=Playalong 3 mit Sax
TTITLE7=Playalong 3
TTITLE8=Playalong 4 mit Sax
TTITLE9=Playalong 4
TTITLE10=Playalong 5 mit Sax
TTITLE11=Playalong 5
TTITLE12=Playalong 6 mit Sax
TTITLE13=Playalong 6
TTITLE14=Playalong 7 mit Sax
TTITLE15=Playalong 7
TTITLE16=Playalong 8 mit Sax
TTITLE17=Playalong 8
TTITLE18=Playalong 9 mit Sax
TTITLE19=Playalong 9
TTITLE20=Playalong 10 mit Sax
TTITLE21=Playalong 10
TTITLE22=Demo1
TTITLE23=Demo2
TTITLE24=Daten-CD
EXTD=
EXTT0=
EXTT1=
EXTT2=
EXTT3=
EXTT4=
EXTT5=
EXTT6=
EXTT7=
EXTT8=
EXTT9=
EXTT10=
EXTT11=
EXTT12=
EXTT13=
EXTT14=
EXTT15=
EXTT16=
EXTT17=
EXTT18=
EXTT19=
EXTT20=
EXTT21=
EXTT22=
EXTT23=
EXTT24=
PLAYORDER=
